<mxfile host="app.diagrams.net" modified="2024-07-25T14:32:11.644Z" agent="Mozilla/5.0 (Macintosh; Intel Mac OS X 10_15_7) AppleWebKit/537.36 (KHTML, like Gecko) Chrome/124.0.0.0 Safari/537.36" version="24.7.1" etag="IuvBcMZV79jbtjXq_UtS" type="github">
  <diagram name="Page-1" id="JIEcCvsyP3tLWZqYlDOC">
    <mxGraphModel>
      <root>
        <mxCell id="0" />
        <mxCell id="1" parent="0" />
      </root>
    </mxGraphModel>
  </diagram>
</mxfile>
